<mxfile host="app.diagrams.net" modified="2024-05-19T01:50:26.966Z" agent="Mozilla/5.0 (Windows NT 10.0; Win64; x64) AppleWebKit/537.36 (KHTML, like Gecko) Chrome/123.0.0.0 Safari/537.36 OPR/109.0.0.0" etag="gLcZC-lhlteoFE20ffx6" version="24.4.4" type="github">
  <diagram name="Page-1" id="2YBvvXClWsGukQMizWep">
    <mxGraphModel dx="1542" dy="579" grid="1" gridSize="10" guides="1" tooltips="1" connect="1" arrows="1" fold="1" page="1" pageScale="1" pageWidth="850" pageHeight="1100" math="0" shadow="0">
      <root>
        <mxCell id="0" />
        <mxCell id="1" parent="0" />
        <mxCell id="_bEzwFX_pjWzvq1VgmYF-5" style="edgeStyle=orthogonalEdgeStyle;rounded=0;orthogonalLoop=1;jettySize=auto;html=1;dashed=1;endArrow=none;endFill=0;exitX=0.509;exitY=1.015;exitDx=0;exitDy=0;exitPerimeter=0;" edge="1" parent="1" source="_bEzwFX_pjWzvq1VgmYF-9">
          <mxGeometry relative="1" as="geometry">
            <mxPoint x="-178" y="1061" as="targetPoint" />
            <mxPoint x="-178" y="150.0000000000001" as="sourcePoint" />
          </mxGeometry>
        </mxCell>
        <mxCell id="_bEzwFX_pjWzvq1VgmYF-90" style="edgeStyle=orthogonalEdgeStyle;rounded=0;orthogonalLoop=1;jettySize=auto;html=1;dashed=1;endArrow=none;endFill=0;" edge="1" parent="1" source="_bEzwFX_pjWzvq1VgmYF-89">
          <mxGeometry relative="1" as="geometry">
            <mxPoint x="787" y="490" as="targetPoint" />
          </mxGeometry>
        </mxCell>
        <mxCell id="_bEzwFX_pjWzvq1VgmYF-3" value="Loop" style="shape=umlFrame;whiteSpace=wrap;html=1;pointerEvents=0;width=57;height=25;" vertex="1" parent="1">
          <mxGeometry x="-556" y="145" width="1576" height="255" as="geometry" />
        </mxCell>
        <mxCell id="_bEzwFX_pjWzvq1VgmYF-4" value="Alt" style="shape=umlFrame;whiteSpace=wrap;html=1;pointerEvents=0;width=50;height=21;" vertex="1" parent="1">
          <mxGeometry x="89" y="248" width="931" height="70" as="geometry" />
        </mxCell>
        <mxCell id="_bEzwFX_pjWzvq1VgmYF-6" value="UsuÃ¡rio" style="shape=umlLifeline;perimeter=lifelinePerimeter;whiteSpace=wrap;html=1;container=0;dropTarget=0;collapsible=0;recursiveResize=0;outlineConnect=0;portConstraint=eastwest;newEdgeStyle={&quot;edgeStyle&quot;:&quot;elbowEdgeStyle&quot;,&quot;elbow&quot;:&quot;vertical&quot;,&quot;curved&quot;:0,&quot;rounded&quot;:0};" vertex="1" parent="1">
          <mxGeometry x="-530" y="59" width="100" height="1011" as="geometry" />
        </mxCell>
        <mxCell id="_bEzwFX_pjWzvq1VgmYF-7" value="main(String)" style="html=1;verticalAlign=bottom;endArrow=block;edgeStyle=elbowEdgeStyle;elbow=vertical;curved=0;rounded=0;" edge="1" parent="1" source="_bEzwFX_pjWzvq1VgmYF-8" target="_bEzwFX_pjWzvq1VgmYF-22">
          <mxGeometry x="-0.0068" relative="1" as="geometry">
            <mxPoint x="-375" y="180" as="sourcePoint" />
            <Array as="points">
              <mxPoint x="-390" y="170" />
            </Array>
            <mxPoint as="offset" />
          </mxGeometry>
        </mxCell>
        <mxCell id="_bEzwFX_pjWzvq1VgmYF-8" value="" style="html=1;points=[];perimeter=orthogonalPerimeter;outlineConnect=0;targetShapes=umlLifeline;portConstraint=eastwest;newEdgeStyle={&quot;edgeStyle&quot;:&quot;elbowEdgeStyle&quot;,&quot;elbow&quot;:&quot;vertical&quot;,&quot;curved&quot;:0,&quot;rounded&quot;:0};" vertex="1" parent="1">
          <mxGeometry x="-485" y="160" width="10" height="890" as="geometry" />
        </mxCell>
        <mxCell id="_bEzwFX_pjWzvq1VgmYF-9" value="Boundary&lt;div&gt;&lt;span style=&quot;background-color: initial;&quot;&gt;Main&lt;/span&gt;&lt;/div&gt;" style="shape=umlBoundary;whiteSpace=wrap;html=1;" vertex="1" parent="1">
          <mxGeometry x="-228" y="39" width="100" height="80" as="geometry" />
        </mxCell>
        <mxCell id="_bEzwFX_pjWzvq1VgmYF-10" style="edgeStyle=orthogonalEdgeStyle;rounded=0;orthogonalLoop=1;jettySize=auto;html=1;dashed=1;endArrow=none;endFill=0;exitX=0.495;exitY=0.995;exitDx=0;exitDy=0;exitPerimeter=0;" edge="1" parent="1" source="_bEzwFX_pjWzvq1VgmYF-11">
          <mxGeometry relative="1" as="geometry">
            <mxPoint x="71" y="941" as="targetPoint" />
            <mxPoint x="71.00000000000045" y="150.0000000000001" as="sourcePoint" />
          </mxGeometry>
        </mxCell>
        <mxCell id="_bEzwFX_pjWzvq1VgmYF-11" value="Control&lt;div&gt;&lt;span style=&quot;background-color: initial;&quot;&gt;Login&lt;/span&gt;&lt;/div&gt;" style="ellipse;shape=umlControl;whiteSpace=wrap;html=1;" vertex="1" parent="1">
          <mxGeometry x="31" y="29" width="80" height="90" as="geometry" />
        </mxCell>
        <mxCell id="_bEzwFX_pjWzvq1VgmYF-12" value="Visual Ops - Login" style="shape=umlFrame;whiteSpace=wrap;html=1;pointerEvents=0;width=150;height=40;" vertex="1" parent="1">
          <mxGeometry x="-590" width="1610" height="380" as="geometry" />
        </mxCell>
        <mxCell id="_bEzwFX_pjWzvq1VgmYF-14" value="Banco VisualOps" style="shape=umlLifeline;perimeter=lifelinePerimeter;whiteSpace=wrap;html=1;container=0;dropTarget=0;collapsible=0;recursiveResize=0;outlineConnect=0;portConstraint=eastwest;newEdgeStyle={&quot;edgeStyle&quot;:&quot;elbowEdgeStyle&quot;,&quot;elbow&quot;:&quot;vertical&quot;,&quot;curved&quot;:0,&quot;rounded&quot;:0};" vertex="1" parent="1">
          <mxGeometry x="967" y="59" width="100" height="841" as="geometry" />
        </mxCell>
        <mxCell id="_bEzwFX_pjWzvq1VgmYF-19" value="if (isNullOrEmpty(email) ||&amp;nbsp;&lt;div&gt;isNullOrEmpty(senha))&lt;/div&gt;" style="text;html=1;align=center;verticalAlign=middle;resizable=0;points=[];autosize=1;strokeColor=none;fillColor=none;" vertex="1" parent="1">
          <mxGeometry x="97" y="270" width="160" height="40" as="geometry" />
        </mxCell>
        <mxCell id="_bEzwFX_pjWzvq1VgmYF-22" value="" style="html=1;points=[];perimeter=orthogonalPerimeter;outlineConnect=0;targetShapes=umlLifeline;portConstraint=eastwest;newEdgeStyle={&quot;edgeStyle&quot;:&quot;elbowEdgeStyle&quot;,&quot;elbow&quot;:&quot;vertical&quot;,&quot;curved&quot;:0,&quot;rounded&quot;:0};" vertex="1" parent="1">
          <mxGeometry x="-183" y="170" width="10" height="400" as="geometry" />
        </mxCell>
        <mxCell id="_bEzwFX_pjWzvq1VgmYF-74" style="edgeStyle=orthogonalEdgeStyle;rounded=0;orthogonalLoop=1;jettySize=auto;html=1;dashed=1;endArrow=none;endFill=0;exitX=0.495;exitY=0.995;exitDx=0;exitDy=0;exitPerimeter=0;" edge="1" parent="1" source="_bEzwFX_pjWzvq1VgmYF-75">
          <mxGeometry relative="1" as="geometry">
            <mxPoint x="541" y="941" as="targetPoint" />
            <mxPoint x="541.0000000000005" y="150.0000000000001" as="sourcePoint" />
          </mxGeometry>
        </mxCell>
        <mxCell id="_bEzwFX_pjWzvq1VgmYF-75" value="Control ServiceUser" style="ellipse;shape=umlControl;whiteSpace=wrap;html=1;" vertex="1" parent="1">
          <mxGeometry x="501" y="29" width="80" height="90" as="geometry" />
        </mxCell>
        <mxCell id="_bEzwFX_pjWzvq1VgmYF-76" style="edgeStyle=orthogonalEdgeStyle;rounded=0;orthogonalLoop=1;jettySize=auto;html=1;dashed=1;endArrow=none;endFill=0;exitX=0.495;exitY=0.995;exitDx=0;exitDy=0;exitPerimeter=0;" edge="1" parent="1" source="_bEzwFX_pjWzvq1VgmYF-77">
          <mxGeometry relative="1" as="geometry">
            <mxPoint x="311" y="941" as="targetPoint" />
            <mxPoint x="311.00000000000045" y="150.0000000000001" as="sourcePoint" />
          </mxGeometry>
        </mxCell>
        <mxCell id="_bEzwFX_pjWzvq1VgmYF-77" value="Control Seguranca" style="ellipse;shape=umlControl;whiteSpace=wrap;html=1;" vertex="1" parent="1">
          <mxGeometry x="271" y="29" width="80" height="90" as="geometry" />
        </mxCell>
        <mxCell id="_bEzwFX_pjWzvq1VgmYF-78" value="usuarioLogado = login(email, senha)" style="html=1;verticalAlign=bottom;endArrow=block;edgeStyle=elbowEdgeStyle;elbow=vertical;curved=0;rounded=0;" edge="1" parent="1">
          <mxGeometry x="-0.0036" relative="1" as="geometry">
            <mxPoint x="-172" y="183" as="sourcePoint" />
            <Array as="points">
              <mxPoint x="-87" y="183" />
            </Array>
            <mxPoint x="66" y="183" as="targetPoint" />
            <mxPoint as="offset" />
          </mxGeometry>
        </mxCell>
        <mxCell id="_bEzwFX_pjWzvq1VgmYF-79" value="" style="html=1;points=[];perimeter=orthogonalPerimeter;outlineConnect=0;targetShapes=umlLifeline;portConstraint=eastwest;newEdgeStyle={&quot;edgeStyle&quot;:&quot;elbowEdgeStyle&quot;,&quot;elbow&quot;:&quot;vertical&quot;,&quot;curved&quot;:0,&quot;rounded&quot;:0};" vertex="1" parent="1">
          <mxGeometry x="66" y="181" width="10" height="379" as="geometry" />
        </mxCell>
        <mxCell id="_bEzwFX_pjWzvq1VgmYF-80" value="usuairo = autenticarUsuario(email, senha)" style="html=1;verticalAlign=bottom;endArrow=block;edgeStyle=elbowEdgeStyle;elbow=vertical;curved=0;rounded=0;" edge="1" parent="1" target="_bEzwFX_pjWzvq1VgmYF-81">
          <mxGeometry x="-0.0029" relative="1" as="geometry">
            <mxPoint x="76" y="238" as="sourcePoint" />
            <Array as="points">
              <mxPoint x="161" y="238" />
            </Array>
            <mxPoint x="296" y="238" as="targetPoint" />
            <mxPoint as="offset" />
          </mxGeometry>
        </mxCell>
        <mxCell id="_bEzwFX_pjWzvq1VgmYF-81" value="" style="html=1;points=[];perimeter=orthogonalPerimeter;outlineConnect=0;targetShapes=umlLifeline;portConstraint=eastwest;newEdgeStyle={&quot;edgeStyle&quot;:&quot;elbowEdgeStyle&quot;,&quot;elbow&quot;:&quot;vertical&quot;,&quot;curved&quot;:0,&quot;rounded&quot;:0};" vertex="1" parent="1">
          <mxGeometry x="306" y="189" width="10" height="351" as="geometry" />
        </mxCell>
        <mxCell id="_bEzwFX_pjWzvq1VgmYF-82" value="usuario = autenticarUsuario(email, senha)" style="html=1;verticalAlign=bottom;endArrow=block;edgeStyle=elbowEdgeStyle;elbow=vertical;curved=0;rounded=0;" edge="1" parent="1" target="_bEzwFX_pjWzvq1VgmYF-83">
          <mxGeometry x="-0.0048" relative="1" as="geometry">
            <mxPoint x="316" y="348" as="sourcePoint" />
            <Array as="points">
              <mxPoint x="401" y="348" />
            </Array>
            <mxPoint x="525" y="348" as="targetPoint" />
            <mxPoint as="offset" />
          </mxGeometry>
        </mxCell>
        <mxCell id="_bEzwFX_pjWzvq1VgmYF-83" value="" style="html=1;points=[];perimeter=orthogonalPerimeter;outlineConnect=0;targetShapes=umlLifeline;portConstraint=eastwest;newEdgeStyle={&quot;edgeStyle&quot;:&quot;elbowEdgeStyle&quot;,&quot;elbow&quot;:&quot;vertical&quot;,&quot;curved&quot;:0,&quot;rounded&quot;:0};" vertex="1" parent="1">
          <mxGeometry x="535" y="345" width="10" height="123" as="geometry" />
        </mxCell>
        <mxCell id="_bEzwFX_pjWzvq1VgmYF-17" style="edgeStyle=elbowEdgeStyle;rounded=0;orthogonalLoop=1;jettySize=auto;html=1;elbow=horizontal;curved=0;dashed=1;dashPattern=8 8;" edge="1" parent="1" source="_bEzwFX_pjWzvq1VgmYF-24" target="_bEzwFX_pjWzvq1VgmYF-24">
          <mxGeometry relative="1" as="geometry">
            <Array as="points">
              <mxPoint x="341" y="301" />
            </Array>
          </mxGeometry>
        </mxCell>
        <mxCell id="_bEzwFX_pjWzvq1VgmYF-18" value="throw new AutenticationException" style="edgeLabel;html=1;align=center;verticalAlign=middle;resizable=0;points=[];" vertex="1" connectable="0" parent="_bEzwFX_pjWzvq1VgmYF-17">
          <mxGeometry x="0.2321" relative="1" as="geometry">
            <mxPoint x="88" y="-6" as="offset" />
          </mxGeometry>
        </mxCell>
        <mxCell id="_bEzwFX_pjWzvq1VgmYF-24" value="" style="html=1;points=[];perimeter=orthogonalPerimeter;outlineConnect=0;targetShapes=umlLifeline;portConstraint=eastwest;newEdgeStyle={&quot;edgeStyle&quot;:&quot;elbowEdgeStyle&quot;,&quot;elbow&quot;:&quot;vertical&quot;,&quot;curved&quot;:0,&quot;rounded&quot;:0};" vertex="1" parent="1">
          <mxGeometry x="313" y="288" width="10" height="25" as="geometry" />
        </mxCell>
        <mxCell id="_bEzwFX_pjWzvq1VgmYF-86" style="edgeStyle=elbowEdgeStyle;rounded=0;orthogonalLoop=1;jettySize=auto;html=1;elbow=horizontal;curved=0;dashed=1;dashPattern=8 8;" edge="1" parent="1" source="_bEzwFX_pjWzvq1VgmYF-88" target="_bEzwFX_pjWzvq1VgmYF-88">
          <mxGeometry relative="1" as="geometry">
            <Array as="points">
              <mxPoint x="368" y="593" />
            </Array>
          </mxGeometry>
        </mxCell>
        <mxCell id="_bEzwFX_pjWzvq1VgmYF-87" value="throw new AutenticationException" style="edgeLabel;html=1;align=center;verticalAlign=middle;resizable=0;points=[];" vertex="1" connectable="0" parent="_bEzwFX_pjWzvq1VgmYF-86">
          <mxGeometry x="0.2321" relative="1" as="geometry">
            <mxPoint x="98" y="-6" as="offset" />
          </mxGeometry>
        </mxCell>
        <mxCell id="_bEzwFX_pjWzvq1VgmYF-88" value="" style="html=1;points=[];perimeter=orthogonalPerimeter;outlineConnect=0;targetShapes=umlLifeline;portConstraint=eastwest;newEdgeStyle={&quot;edgeStyle&quot;:&quot;elbowEdgeStyle&quot;,&quot;elbow&quot;:&quot;vertical&quot;,&quot;curved&quot;:0,&quot;rounded&quot;:0};" vertex="1" parent="1">
          <mxGeometry x="340" y="580" width="10" height="25" as="geometry" />
        </mxCell>
        <mxCell id="_bEzwFX_pjWzvq1VgmYF-20" style="edgeStyle=elbowEdgeStyle;rounded=0;orthogonalLoop=1;jettySize=auto;html=1;elbow=horizontal;curved=0;" edge="1" parent="1" source="_bEzwFX_pjWzvq1VgmYF-23" target="_bEzwFX_pjWzvq1VgmYF-23">
          <mxGeometry relative="1" as="geometry">
            <Array as="points">
              <mxPoint x="341" y="270" />
            </Array>
          </mxGeometry>
        </mxCell>
        <mxCell id="_bEzwFX_pjWzvq1VgmYF-21" value="Logger.logWarning(message)" style="edgeLabel;html=1;align=center;verticalAlign=middle;resizable=0;points=[];" vertex="1" connectable="0" parent="_bEzwFX_pjWzvq1VgmYF-20">
          <mxGeometry x="0.2321" relative="1" as="geometry">
            <mxPoint x="76" y="-6" as="offset" />
          </mxGeometry>
        </mxCell>
        <mxCell id="_bEzwFX_pjWzvq1VgmYF-23" value="" style="html=1;points=[];perimeter=orthogonalPerimeter;outlineConnect=0;targetShapes=umlLifeline;portConstraint=eastwest;newEdgeStyle={&quot;edgeStyle&quot;:&quot;elbowEdgeStyle&quot;,&quot;elbow&quot;:&quot;vertical&quot;,&quot;curved&quot;:0,&quot;rounded&quot;:0};" vertex="1" parent="1">
          <mxGeometry x="313" y="257" width="10" height="25" as="geometry" />
        </mxCell>
        <mxCell id="_bEzwFX_pjWzvq1VgmYF-84" value="findByEmailAndSenha(email, senha)" style="html=1;verticalAlign=bottom;endArrow=block;edgeStyle=elbowEdgeStyle;elbow=vertical;curved=0;rounded=0;" edge="1" parent="1">
          <mxGeometry x="-0.0028" relative="1" as="geometry">
            <mxPoint x="545" y="358" as="sourcePoint" />
            <Array as="points">
              <mxPoint x="630" y="358" />
            </Array>
            <mxPoint x="782" y="358" as="targetPoint" />
            <mxPoint as="offset" />
          </mxGeometry>
        </mxCell>
        <mxCell id="_bEzwFX_pjWzvq1VgmYF-85" value="" style="html=1;points=[];perimeter=orthogonalPerimeter;outlineConnect=0;targetShapes=umlLifeline;portConstraint=eastwest;newEdgeStyle={&quot;edgeStyle&quot;:&quot;elbowEdgeStyle&quot;,&quot;elbow&quot;:&quot;vertical&quot;,&quot;curved&quot;:0,&quot;rounded&quot;:0};" vertex="1" parent="1">
          <mxGeometry x="782" y="356" width="10" height="102" as="geometry" />
        </mxCell>
        <mxCell id="_bEzwFX_pjWzvq1VgmYF-89" value="Control UsuarioDAO" style="ellipse;shape=umlControl;whiteSpace=wrap;html=1;" vertex="1" parent="1">
          <mxGeometry x="747" y="29" width="80" height="90" as="geometry" />
        </mxCell>
        <mxCell id="_bEzwFX_pjWzvq1VgmYF-91" value="" style="html=1;points=[];perimeter=orthogonalPerimeter;outlineConnect=0;targetShapes=umlLifeline;portConstraint=eastwest;newEdgeStyle={&quot;edgeStyle&quot;:&quot;elbowEdgeStyle&quot;,&quot;elbow&quot;:&quot;vertical&quot;,&quot;curved&quot;:0,&quot;rounded&quot;:0};" vertex="1" parent="1">
          <mxGeometry x="1012" y="406" width="10" height="40" as="geometry" />
        </mxCell>
        <mxCell id="_bEzwFX_pjWzvq1VgmYF-92" style="edgeStyle=elbowEdgeStyle;rounded=0;orthogonalLoop=1;jettySize=auto;html=1;elbow=horizontal;curved=0;" edge="1" parent="1" source="_bEzwFX_pjWzvq1VgmYF-94" target="_bEzwFX_pjWzvq1VgmYF-94">
          <mxGeometry relative="1" as="geometry">
            <Array as="points">
              <mxPoint x="817" y="375" />
            </Array>
          </mxGeometry>
        </mxCell>
        <mxCell id="_bEzwFX_pjWzvq1VgmYF-93" value="abrirConexao()" style="edgeLabel;html=1;align=center;verticalAlign=middle;resizable=0;points=[];" vertex="1" connectable="0" parent="_bEzwFX_pjWzvq1VgmYF-92">
          <mxGeometry x="0.2321" relative="1" as="geometry">
            <mxPoint x="44" y="-6" as="offset" />
          </mxGeometry>
        </mxCell>
        <mxCell id="_bEzwFX_pjWzvq1VgmYF-94" value="" style="html=1;points=[];perimeter=orthogonalPerimeter;outlineConnect=0;targetShapes=umlLifeline;portConstraint=eastwest;newEdgeStyle={&quot;edgeStyle&quot;:&quot;elbowEdgeStyle&quot;,&quot;elbow&quot;:&quot;vertical&quot;,&quot;curved&quot;:0,&quot;rounded&quot;:0};" vertex="1" parent="1">
          <mxGeometry x="789" y="362" width="10" height="25" as="geometry" />
        </mxCell>
        <mxCell id="_bEzwFX_pjWzvq1VgmYF-95" value="executeQuery()" style="html=1;verticalAlign=bottom;endArrow=block;edgeStyle=elbowEdgeStyle;elbow=vertical;curved=0;rounded=0;" edge="1" parent="1">
          <mxGeometry x="-0.0028" relative="1" as="geometry">
            <mxPoint x="792" y="408.14" as="sourcePoint" />
            <Array as="points">
              <mxPoint x="877" y="408.14" />
            </Array>
            <mxPoint x="1010" y="408" as="targetPoint" />
            <mxPoint as="offset" />
          </mxGeometry>
        </mxCell>
        <mxCell id="_bEzwFX_pjWzvq1VgmYF-97" value="retorna Optional&amp;lt;Usuario&amp;gt;" style="html=1;verticalAlign=bottom;endArrow=open;edgeStyle=elbowEdgeStyle;elbow=vertical;curved=0;rounded=0;dashed=1;dashPattern=8 8;endFill=0;" edge="1" parent="1">
          <mxGeometry x="-0.0028" relative="1" as="geometry">
            <mxPoint x="1011" y="442" as="sourcePoint" />
            <Array as="points">
              <mxPoint x="878" y="442.14" />
            </Array>
            <mxPoint x="793" y="442.14" as="targetPoint" />
            <mxPoint as="offset" />
          </mxGeometry>
        </mxCell>
        <mxCell id="_bEzwFX_pjWzvq1VgmYF-98" value="retorna Optional&amp;lt;Usuario&amp;gt;" style="html=1;verticalAlign=bottom;endArrow=open;edgeStyle=elbowEdgeStyle;elbow=vertical;curved=0;rounded=0;dashed=1;dashPattern=8 8;endFill=0;" edge="1" parent="1">
          <mxGeometry x="-0.0028" relative="1" as="geometry">
            <mxPoint x="782" y="452" as="sourcePoint" />
            <Array as="points">
              <mxPoint x="649" y="452.14" />
            </Array>
            <mxPoint x="545" y="452.1400000000001" as="targetPoint" />
            <mxPoint as="offset" />
          </mxGeometry>
        </mxCell>
        <mxCell id="_bEzwFX_pjWzvq1VgmYF-99" value="retorna usuario" style="html=1;verticalAlign=bottom;endArrow=open;edgeStyle=elbowEdgeStyle;elbow=vertical;curved=0;rounded=0;dashed=1;dashPattern=8 8;endFill=0;" edge="1" parent="1">
          <mxGeometry x="-0.0028" relative="1" as="geometry">
            <mxPoint x="525" y="459" as="sourcePoint" />
            <Array as="points">
              <mxPoint x="392" y="459.14" />
            </Array>
            <mxPoint x="316" y="459.14" as="targetPoint" />
            <mxPoint as="offset" />
          </mxGeometry>
        </mxCell>
        <mxCell id="_bEzwFX_pjWzvq1VgmYF-100" style="edgeStyle=elbowEdgeStyle;rounded=0;orthogonalLoop=1;jettySize=auto;html=1;elbow=horizontal;curved=0;dashed=1;dashPattern=8 8;" edge="1" parent="1" source="_bEzwFX_pjWzvq1VgmYF-102" target="_bEzwFX_pjWzvq1VgmYF-102">
          <mxGeometry relative="1" as="geometry">
            <Array as="points">
              <mxPoint x="341" y="516" />
            </Array>
          </mxGeometry>
        </mxCell>
        <mxCell id="_bEzwFX_pjWzvq1VgmYF-101" value="throw new AutenticationException" style="edgeLabel;html=1;align=center;verticalAlign=middle;resizable=0;points=[];" vertex="1" connectable="0" parent="_bEzwFX_pjWzvq1VgmYF-100">
          <mxGeometry x="0.2321" relative="1" as="geometry">
            <mxPoint x="88" y="-6" as="offset" />
          </mxGeometry>
        </mxCell>
        <mxCell id="_bEzwFX_pjWzvq1VgmYF-102" value="" style="html=1;points=[];perimeter=orthogonalPerimeter;outlineConnect=0;targetShapes=umlLifeline;portConstraint=eastwest;newEdgeStyle={&quot;edgeStyle&quot;:&quot;elbowEdgeStyle&quot;,&quot;elbow&quot;:&quot;vertical&quot;,&quot;curved&quot;:0,&quot;rounded&quot;:0};" vertex="1" parent="1">
          <mxGeometry x="313" y="503" width="10" height="25" as="geometry" />
        </mxCell>
        <mxCell id="_bEzwFX_pjWzvq1VgmYF-103" style="edgeStyle=elbowEdgeStyle;rounded=0;orthogonalLoop=1;jettySize=auto;html=1;elbow=horizontal;curved=0;" edge="1" parent="1" source="_bEzwFX_pjWzvq1VgmYF-105" target="_bEzwFX_pjWzvq1VgmYF-105">
          <mxGeometry relative="1" as="geometry">
            <Array as="points">
              <mxPoint x="341" y="485" />
            </Array>
          </mxGeometry>
        </mxCell>
        <mxCell id="_bEzwFX_pjWzvq1VgmYF-104" value="Logger.logWarning(message)" style="edgeLabel;html=1;align=center;verticalAlign=middle;resizable=0;points=[];" vertex="1" connectable="0" parent="_bEzwFX_pjWzvq1VgmYF-103">
          <mxGeometry x="0.2321" relative="1" as="geometry">
            <mxPoint x="76" y="-6" as="offset" />
          </mxGeometry>
        </mxCell>
        <mxCell id="_bEzwFX_pjWzvq1VgmYF-105" value="" style="html=1;points=[];perimeter=orthogonalPerimeter;outlineConnect=0;targetShapes=umlLifeline;portConstraint=eastwest;newEdgeStyle={&quot;edgeStyle&quot;:&quot;elbowEdgeStyle&quot;,&quot;elbow&quot;:&quot;vertical&quot;,&quot;curved&quot;:0,&quot;rounded&quot;:0};" vertex="1" parent="1">
          <mxGeometry x="313" y="472" width="10" height="25" as="geometry" />
        </mxCell>
        <mxCell id="_bEzwFX_pjWzvq1VgmYF-106" value="retorna True" style="html=1;verticalAlign=bottom;endArrow=open;edgeStyle=elbowEdgeStyle;elbow=vertical;curved=0;rounded=0;dashed=1;dashPattern=8 8;endFill=0;" edge="1" parent="1">
          <mxGeometry x="-0.0028" relative="1" as="geometry">
            <mxPoint x="296" y="536" as="sourcePoint" />
            <Array as="points">
              <mxPoint x="163" y="536.14" />
            </Array>
            <mxPoint x="76" y="536.1399999999999" as="targetPoint" />
            <mxPoint as="offset" />
          </mxGeometry>
        </mxCell>
        <mxCell id="_bEzwFX_pjWzvq1VgmYF-107" style="edgeStyle=elbowEdgeStyle;rounded=0;orthogonalLoop=1;jettySize=auto;html=1;elbow=horizontal;curved=0;" edge="1" parent="1" source="_bEzwFX_pjWzvq1VgmYF-109" target="_bEzwFX_pjWzvq1VgmYF-109">
          <mxGeometry relative="1" as="geometry">
            <Array as="points">
              <mxPoint x="101" y="201" />
            </Array>
          </mxGeometry>
        </mxCell>
        <mxCell id="_bEzwFX_pjWzvq1VgmYF-108" value="Logger.logInfo(message)" style="edgeLabel;html=1;align=center;verticalAlign=middle;resizable=0;points=[];" vertex="1" connectable="0" parent="_bEzwFX_pjWzvq1VgmYF-107">
          <mxGeometry x="0.2321" relative="1" as="geometry">
            <mxPoint x="66" y="-6" as="offset" />
          </mxGeometry>
        </mxCell>
        <mxCell id="_bEzwFX_pjWzvq1VgmYF-109" value="" style="html=1;points=[];perimeter=orthogonalPerimeter;outlineConnect=0;targetShapes=umlLifeline;portConstraint=eastwest;newEdgeStyle={&quot;edgeStyle&quot;:&quot;elbowEdgeStyle&quot;,&quot;elbow&quot;:&quot;vertical&quot;,&quot;curved&quot;:0,&quot;rounded&quot;:0};" vertex="1" parent="1">
          <mxGeometry x="73" y="188" width="10" height="25" as="geometry" />
        </mxCell>
        <mxCell id="_bEzwFX_pjWzvq1VgmYF-111" style="edgeStyle=elbowEdgeStyle;rounded=0;orthogonalLoop=1;jettySize=auto;html=1;elbow=horizontal;curved=0;" edge="1" parent="1" source="_bEzwFX_pjWzvq1VgmYF-113" target="_bEzwFX_pjWzvq1VgmYF-113">
          <mxGeometry relative="1" as="geometry">
            <Array as="points">
              <mxPoint x="101" y="344" />
            </Array>
          </mxGeometry>
        </mxCell>
        <mxCell id="_bEzwFX_pjWzvq1VgmYF-112" value="Logger.logInfo(message)" style="edgeLabel;html=1;align=center;verticalAlign=middle;resizable=0;points=[];" vertex="1" connectable="0" parent="_bEzwFX_pjWzvq1VgmYF-111">
          <mxGeometry x="0.2321" relative="1" as="geometry">
            <mxPoint x="66" y="-6" as="offset" />
          </mxGeometry>
        </mxCell>
        <mxCell id="_bEzwFX_pjWzvq1VgmYF-113" value="" style="html=1;points=[];perimeter=orthogonalPerimeter;outlineConnect=0;targetShapes=umlLifeline;portConstraint=eastwest;newEdgeStyle={&quot;edgeStyle&quot;:&quot;elbowEdgeStyle&quot;,&quot;elbow&quot;:&quot;vertical&quot;,&quot;curved&quot;:0,&quot;rounded&quot;:0};" vertex="1" parent="1">
          <mxGeometry x="73" y="331" width="10" height="25" as="geometry" />
        </mxCell>
        <mxCell id="_bEzwFX_pjWzvq1VgmYF-114" value="retorna Usuario" style="html=1;verticalAlign=bottom;endArrow=open;edgeStyle=elbowEdgeStyle;elbow=vertical;curved=0;rounded=0;dashed=1;dashPattern=8 8;endFill=0;" edge="1" parent="1" target="_bEzwFX_pjWzvq1VgmYF-22">
          <mxGeometry x="-0.0028" relative="1" as="geometry">
            <mxPoint x="66" y="556" as="sourcePoint" />
            <Array as="points">
              <mxPoint x="-67" y="556.14" />
            </Array>
            <mxPoint x="-154" y="556.1399999999999" as="targetPoint" />
            <mxPoint as="offset" />
          </mxGeometry>
        </mxCell>
        <mxCell id="_bEzwFX_pjWzvq1VgmYF-119" value="" style="group" vertex="1" connectable="0" parent="1">
          <mxGeometry x="-248" y="579" width="128" height="67" as="geometry" />
        </mxCell>
        <mxCell id="_bEzwFX_pjWzvq1VgmYF-118" value="verificar Maquina" style="whiteSpace=wrap;html=1;" vertex="1" parent="_bEzwFX_pjWzvq1VgmYF-119">
          <mxGeometry x="8" y="7" width="120" height="60" as="geometry" />
        </mxCell>
        <mxCell id="_bEzwFX_pjWzvq1VgmYF-117" value="Ref" style="text;html=1;align=center;verticalAlign=middle;resizable=0;points=[];autosize=1;strokeColor=none;fillColor=none;" vertex="1" parent="_bEzwFX_pjWzvq1VgmYF-119">
          <mxGeometry width="40" height="30" as="geometry" />
        </mxCell>
        <mxCell id="_bEzwFX_pjWzvq1VgmYF-120" value="Visual Ops - Verificar Maquina" style="shape=umlFrame;whiteSpace=wrap;html=1;pointerEvents=0;width=150;height=40;" vertex="1" parent="1">
          <mxGeometry x="1275" y="29" width="745" height="451" as="geometry" />
        </mxCell>
        <mxCell id="_bEzwFX_pjWzvq1VgmYF-121" style="edgeStyle=orthogonalEdgeStyle;rounded=0;orthogonalLoop=1;jettySize=auto;html=1;dashed=1;endArrow=none;endFill=0;exitX=0.509;exitY=1.015;exitDx=0;exitDy=0;exitPerimeter=0;" edge="1" parent="1">
          <mxGeometry relative="1" as="geometry">
            <mxPoint x="1662" y="460" as="targetPoint" />
            <mxPoint x="1662.9000000000005" y="158.20000000000005" as="sourcePoint" />
          </mxGeometry>
        </mxCell>
        <mxCell id="_bEzwFX_pjWzvq1VgmYF-122" value="Main" style="shape=umlLifeline;perimeter=lifelinePerimeter;whiteSpace=wrap;html=1;container=0;dropTarget=0;collapsible=0;recursiveResize=0;outlineConnect=0;portConstraint=eastwest;newEdgeStyle={&quot;edgeStyle&quot;:&quot;elbowEdgeStyle&quot;,&quot;elbow&quot;:&quot;vertical&quot;,&quot;curved&quot;:0,&quot;rounded&quot;:0};" vertex="1" parent="1">
          <mxGeometry x="1310" y="97" width="100" height="363" as="geometry" />
        </mxCell>
        <mxCell id="_bEzwFX_pjWzvq1VgmYF-123" value="maquina = verificarMaquina(Usuario)" style="html=1;verticalAlign=bottom;endArrow=block;edgeStyle=elbowEdgeStyle;elbow=vertical;curved=0;rounded=0;" edge="1" parent="1" source="_bEzwFX_pjWzvq1VgmYF-124" target="_bEzwFX_pjWzvq1VgmYF-126">
          <mxGeometry x="-0.0068" relative="1" as="geometry">
            <mxPoint x="1465" y="195" as="sourcePoint" />
            <Array as="points">
              <mxPoint x="1450" y="185" />
            </Array>
            <mxPoint as="offset" />
          </mxGeometry>
        </mxCell>
        <mxCell id="_bEzwFX_pjWzvq1VgmYF-124" value="" style="html=1;points=[];perimeter=orthogonalPerimeter;outlineConnect=0;targetShapes=umlLifeline;portConstraint=eastwest;newEdgeStyle={&quot;edgeStyle&quot;:&quot;elbowEdgeStyle&quot;,&quot;elbow&quot;:&quot;vertical&quot;,&quot;curved&quot;:0,&quot;rounded&quot;:0};" vertex="1" parent="1">
          <mxGeometry x="1355" y="175" width="10" height="275" as="geometry" />
        </mxCell>
        <mxCell id="_bEzwFX_pjWzvq1VgmYF-126" value="" style="html=1;points=[];perimeter=orthogonalPerimeter;outlineConnect=0;targetShapes=umlLifeline;portConstraint=eastwest;newEdgeStyle={&quot;edgeStyle&quot;:&quot;elbowEdgeStyle&quot;,&quot;elbow&quot;:&quot;vertical&quot;,&quot;curved&quot;:0,&quot;rounded&quot;:0};" vertex="1" parent="1">
          <mxGeometry x="1657" y="185" width="10" height="265" as="geometry" />
        </mxCell>
        <mxCell id="_bEzwFX_pjWzvq1VgmYF-127" value="retorna maquina.get()" style="html=1;verticalAlign=bottom;endArrow=block;edgeStyle=elbowEdgeStyle;elbow=vertical;curved=0;rounded=0;dashed=1;dashPattern=8 8;" edge="1" parent="1">
          <mxGeometry x="-0.0068" relative="1" as="geometry">
            <mxPoint x="1657" y="441" as="sourcePoint" />
            <Array as="points">
              <mxPoint x="1450" y="441" />
            </Array>
            <mxPoint as="offset" />
            <mxPoint x="1365" y="441" as="targetPoint" />
          </mxGeometry>
        </mxCell>
        <mxCell id="_bEzwFX_pjWzvq1VgmYF-128" value="Control ServicePC" style="ellipse;shape=umlControl;whiteSpace=wrap;html=1;" vertex="1" parent="1">
          <mxGeometry x="1623" y="66" width="80" height="90" as="geometry" />
        </mxCell>
        <mxCell id="_bEzwFX_pjWzvq1VgmYF-129" style="edgeStyle=elbowEdgeStyle;rounded=0;orthogonalLoop=1;jettySize=auto;html=1;elbow=horizontal;curved=0;" edge="1" parent="1" source="_bEzwFX_pjWzvq1VgmYF-131" target="_bEzwFX_pjWzvq1VgmYF-131">
          <mxGeometry relative="1" as="geometry">
            <Array as="points">
              <mxPoint x="1692" y="208" />
            </Array>
          </mxGeometry>
        </mxCell>
        <mxCell id="_bEzwFX_pjWzvq1VgmYF-130" value="ipv4 = MaquinaDAO.getIpv4()" style="edgeLabel;html=1;align=center;verticalAlign=middle;resizable=0;points=[];" vertex="1" connectable="0" parent="_bEzwFX_pjWzvq1VgmYF-129">
          <mxGeometry x="0.2321" relative="1" as="geometry">
            <mxPoint x="78" y="-6" as="offset" />
          </mxGeometry>
        </mxCell>
        <mxCell id="_bEzwFX_pjWzvq1VgmYF-131" value="" style="html=1;points=[];perimeter=orthogonalPerimeter;outlineConnect=0;targetShapes=umlLifeline;portConstraint=eastwest;newEdgeStyle={&quot;edgeStyle&quot;:&quot;elbowEdgeStyle&quot;,&quot;elbow&quot;:&quot;vertical&quot;,&quot;curved&quot;:0,&quot;rounded&quot;:0};" vertex="1" parent="1">
          <mxGeometry x="1664" y="195" width="10" height="25" as="geometry" />
        </mxCell>
        <mxCell id="_bEzwFX_pjWzvq1VgmYF-132" style="edgeStyle=elbowEdgeStyle;rounded=0;orthogonalLoop=1;jettySize=auto;html=1;elbow=horizontal;curved=0;" edge="1" parent="1" source="_bEzwFX_pjWzvq1VgmYF-134" target="_bEzwFX_pjWzvq1VgmYF-134">
          <mxGeometry relative="1" as="geometry">
            <Array as="points">
              <mxPoint x="1692" y="253" />
            </Array>
          </mxGeometry>
        </mxCell>
        <mxCell id="_bEzwFX_pjWzvq1VgmYF-133" value="maquina = MaquinaDAO.monitorarMaquina(Usuario)" style="edgeLabel;html=1;align=center;verticalAlign=middle;resizable=0;points=[];" vertex="1" connectable="0" parent="_bEzwFX_pjWzvq1VgmYF-132">
          <mxGeometry x="0.2321" relative="1" as="geometry">
            <mxPoint x="134" y="-6" as="offset" />
          </mxGeometry>
        </mxCell>
        <mxCell id="_bEzwFX_pjWzvq1VgmYF-134" value="" style="html=1;points=[];perimeter=orthogonalPerimeter;outlineConnect=0;targetShapes=umlLifeline;portConstraint=eastwest;newEdgeStyle={&quot;edgeStyle&quot;:&quot;elbowEdgeStyle&quot;,&quot;elbow&quot;:&quot;vertical&quot;,&quot;curved&quot;:0,&quot;rounded&quot;:0};" vertex="1" parent="1">
          <mxGeometry x="1664" y="240" width="10" height="25" as="geometry" />
        </mxCell>
        <mxCell id="_bEzwFX_pjWzvq1VgmYF-135" value="Alt" style="shape=umlFrame;whiteSpace=wrap;html=1;pointerEvents=0;width=50;height=21;" vertex="1" parent="1">
          <mxGeometry x="1480" y="288" width="500" height="112" as="geometry" />
        </mxCell>
        <mxCell id="_bEzwFX_pjWzvq1VgmYF-136" value="if (maquina.isEmpty()&lt;span style=&quot;background-color: initial;&quot;&gt;)&lt;/span&gt;" style="text;html=1;align=center;verticalAlign=middle;resizable=0;points=[];autosize=1;strokeColor=none;fillColor=none;" vertex="1" parent="1">
          <mxGeometry x="1483" y="312" width="140" height="30" as="geometry" />
        </mxCell>
        <mxCell id="_bEzwFX_pjWzvq1VgmYF-137" style="edgeStyle=elbowEdgeStyle;rounded=0;orthogonalLoop=1;jettySize=auto;html=1;elbow=horizontal;curved=0;dashed=1;dashPattern=8 8;" edge="1" parent="1" source="_bEzwFX_pjWzvq1VgmYF-139" target="_bEzwFX_pjWzvq1VgmYF-139">
          <mxGeometry relative="1" as="geometry">
            <Array as="points">
              <mxPoint x="1692" y="314.5" />
            </Array>
          </mxGeometry>
        </mxCell>
        <mxCell id="_bEzwFX_pjWzvq1VgmYF-138" value="Logger.logWarning(message)" style="edgeLabel;html=1;align=center;verticalAlign=middle;resizable=0;points=[];" vertex="1" connectable="0" parent="_bEzwFX_pjWzvq1VgmYF-137">
          <mxGeometry x="0.2321" relative="1" as="geometry">
            <mxPoint x="79" y="-6" as="offset" />
          </mxGeometry>
        </mxCell>
        <mxCell id="_bEzwFX_pjWzvq1VgmYF-139" value="" style="html=1;points=[];perimeter=orthogonalPerimeter;outlineConnect=0;targetShapes=umlLifeline;portConstraint=eastwest;newEdgeStyle={&quot;edgeStyle&quot;:&quot;elbowEdgeStyle&quot;,&quot;elbow&quot;:&quot;vertical&quot;,&quot;curved&quot;:0,&quot;rounded&quot;:0};" vertex="1" parent="1">
          <mxGeometry x="1664" y="301.5" width="10" height="25" as="geometry" />
        </mxCell>
        <mxCell id="_bEzwFX_pjWzvq1VgmYF-140" value="" style="line;strokeWidth=1;fillColor=none;align=left;verticalAlign=middle;spacingTop=-1;spacingLeft=3;spacingRight=3;rotatable=0;labelPosition=right;points=[];portConstraint=eastwest;strokeColor=inherit;" vertex="1" parent="1">
          <mxGeometry x="1480" y="345" width="500" height="8" as="geometry" />
        </mxCell>
        <mxCell id="_bEzwFX_pjWzvq1VgmYF-141" style="edgeStyle=elbowEdgeStyle;rounded=0;orthogonalLoop=1;jettySize=auto;html=1;elbow=horizontal;curved=0;dashed=1;dashPattern=8 8;" edge="1" parent="1" source="_bEzwFX_pjWzvq1VgmYF-143" target="_bEzwFX_pjWzvq1VgmYF-143">
          <mxGeometry relative="1" as="geometry">
            <Array as="points">
              <mxPoint x="1692" y="375.5" />
            </Array>
          </mxGeometry>
        </mxCell>
        <mxCell id="_bEzwFX_pjWzvq1VgmYF-142" value="Logger.logWarning(message)" style="edgeLabel;html=1;align=center;verticalAlign=middle;resizable=0;points=[];" vertex="1" connectable="0" parent="_bEzwFX_pjWzvq1VgmYF-141">
          <mxGeometry x="0.2321" relative="1" as="geometry">
            <mxPoint x="79" y="-6" as="offset" />
          </mxGeometry>
        </mxCell>
        <mxCell id="_bEzwFX_pjWzvq1VgmYF-143" value="" style="html=1;points=[];perimeter=orthogonalPerimeter;outlineConnect=0;targetShapes=umlLifeline;portConstraint=eastwest;newEdgeStyle={&quot;edgeStyle&quot;:&quot;elbowEdgeStyle&quot;,&quot;elbow&quot;:&quot;vertical&quot;,&quot;curved&quot;:0,&quot;rounded&quot;:0};" vertex="1" parent="1">
          <mxGeometry x="1664" y="362.5" width="10" height="25" as="geometry" />
        </mxCell>
        <mxCell id="_bEzwFX_pjWzvq1VgmYF-144" value="else if (!maquina.get()&lt;div&gt;&lt;span style=&quot;background-color: initial;&quot;&gt;.getIpv4.contains(ipv4))&lt;/span&gt;&lt;/div&gt;" style="text;html=1;align=center;verticalAlign=middle;resizable=0;points=[];autosize=1;strokeColor=none;fillColor=none;" vertex="1" parent="1">
          <mxGeometry x="1478" y="356" width="150" height="40" as="geometry" />
        </mxCell>
      </root>
    </mxGraphModel>
  </diagram>
</mxfile>
